<svg width="64" height="64" viewBox="0 0 64 64" fill="none" xmlns="http://www.w3.org/2000/svg">
<rect width="64" height="64" rx="4" fill="#00BCD4"/>
<path d="M45.2334 17.1241H18.7678C18.3323 17.1243 17.9147 17.2974 17.6068 17.6053C17.2989 17.9133 17.1258 18.3309 17.1256 18.7664V45.2319C17.1258 45.6674 17.2989 46.085 17.6068 46.3929C17.9147 46.7009 18.3323 46.874 18.7678 46.8741H32.0006V35.1866H28.4446V30.9366H32.0006V27.5499C32.0006 23.7077 34.6655 21.6159 38.098 21.6159C39.7403 21.6159 41.5067 21.7394 41.917 21.7938V25.8068H39.1824C37.3151 25.8068 36.9592 26.69 36.9592 27.9915V30.9366H41.4084L40.8273 35.1866H36.9592V46.8741H45.2334C45.6689 46.874 46.0865 46.7009 46.3944 46.3929C46.7023 46.085 46.8754 45.6674 46.8756 45.2319V18.7664C46.8754 18.3309 46.7023 17.9133 46.3944 17.6053C46.0865 17.2974 45.6689 17.1243 45.2334 17.1241Z" fill="white"/>
</svg>
