<svg width="22" height="22" viewBox="0 0 22 22" fill="none" xmlns="http://www.w3.org/2000/svg">
<path d="M11 0.499878C5.20156 0.499878 0.5 5.32331 0.5 11.2671C0.5 16.0249 3.50937 20.0561 7.68125 21.4811C7.73976 21.4938 7.79949 21.5001 7.85937 21.4999C8.24843 21.4999 8.39843 21.2139 8.39843 20.9655C8.39843 20.7077 8.38906 20.0327 8.38437 19.1327C8.03705 19.2141 7.68173 19.2566 7.325 19.2592C5.30469 19.2592 4.84531 17.6889 4.84531 17.6889C4.36719 16.4467 3.67812 16.1139 3.67812 16.1139C2.76406 15.4717 3.67344 15.453 3.74375 15.453H3.74844C4.80312 15.5467 5.35625 16.5686 5.35625 16.5686C5.88125 17.4874 6.58437 17.7452 7.2125 17.7452C7.62783 17.7369 8.03673 17.641 8.4125 17.4639C8.50625 16.7702 8.77812 16.2967 9.07812 16.0249C6.74843 15.753 4.29687 14.8296 4.29687 10.7046C4.29687 9.528 4.70469 8.56706 5.375 7.81706C5.26718 7.54519 4.90625 6.44831 5.47812 4.96706C5.55483 4.94871 5.63367 4.94082 5.7125 4.94362C6.09218 4.94362 6.95 5.08894 8.36562 6.07331C10.0857 5.59205 11.9049 5.59205 13.625 6.07331C15.0406 5.08894 15.8984 4.94362 16.2781 4.94362C16.3569 4.94082 16.4358 4.94871 16.5125 4.96706C17.0844 6.44831 16.7234 7.54519 16.6156 7.81706C17.2859 8.57175 17.6937 9.53268 17.6937 10.7046C17.6937 14.8389 15.2375 15.7483 12.8984 16.0155C13.2734 16.3483 13.6109 17.0046 13.6109 18.0077C13.6109 19.4467 13.5969 20.6092 13.5969 20.9608C13.5969 21.2139 13.7422 21.4999 14.1312 21.4999C14.1942 21.5001 14.2571 21.4939 14.3187 21.4811C18.4953 20.0561 21.5 16.0202 21.5 11.2671C21.5 5.32331 16.7984 0.499878 11 0.499878Z" fill="white"/>
</svg>
