<svg width="64" height="64" viewBox="0 0 64 64" fill="none" xmlns="http://www.w3.org/2000/svg">
<rect width="64" height="64" rx="4" fill="#00BCD4"/>
<path d="M39.609 18.2808C41.4929 18.2864 43.2981 19.0373 44.6302 20.3694C45.9624 21.7015 46.7132 23.5067 46.7189 25.3906V39.6089C46.7132 41.4928 45.9624 43.298 44.6302 44.6301C43.2981 45.9622 41.4929 46.7131 39.609 46.7188H25.3908C23.5068 46.7131 21.7017 45.9622 20.3695 44.6301C19.0374 43.298 18.2865 41.4928 18.2809 39.6089V25.3906C18.2865 23.5067 19.0374 21.7015 20.3695 20.3694C21.7017 19.0373 23.5068 18.2864 25.3908 18.2808H39.609V18.2808ZM39.609 15.4373H25.3908C19.9163 15.4373 15.4374 19.9162 15.4374 25.3906V39.6089C15.4374 45.0833 19.9163 49.5622 25.3908 49.5622H39.609C45.0835 49.5622 49.5624 45.0833 49.5624 39.6089V25.3906C49.5624 19.9162 45.0835 15.4373 39.609 15.4373V15.4373Z" fill="white"/>
<path d="M41.7418 25.3903C41.32 25.3903 40.9076 25.2652 40.5569 25.0308C40.2062 24.7965 39.9328 24.4634 39.7714 24.0736C39.6099 23.6839 39.5677 23.2551 39.65 22.8414C39.7323 22.4276 39.9354 22.0476 40.2337 21.7493C40.532 21.451 40.912 21.2479 41.3257 21.1656C41.7395 21.0833 42.1683 21.1256 42.558 21.287C42.9477 21.4484 43.2808 21.7218 43.5152 22.0725C43.7495 22.4233 43.8746 22.8356 43.8746 23.2574C43.8752 23.5377 43.8205 23.8153 43.7135 24.0744C43.6065 24.3334 43.4495 24.5687 43.2513 24.7669C43.0531 24.9651 42.8178 25.1222 42.5587 25.2291C42.2997 25.3361 42.0221 25.3909 41.7418 25.3903V25.3903Z" fill="white"/>
<path d="M32.4998 26.811C33.6247 26.811 34.7244 27.1446 35.6597 27.7696C36.5951 28.3946 37.3241 29.2829 37.7546 30.3222C38.185 31.3615 38.2977 32.5051 38.0782 33.6084C37.8588 34.7117 37.3171 35.7252 36.5216 36.5206C35.7262 37.3161 34.7127 37.8578 33.6094 38.0772C32.5061 38.2967 31.3625 38.1841 30.3231 37.7536C29.2838 37.3231 28.3955 36.5941 27.7706 35.6587C27.1456 34.7234 26.812 33.6237 26.812 32.4988C26.8136 30.9908 27.4134 29.545 28.4797 28.4787C29.546 27.4124 30.9918 26.8126 32.4998 26.811V26.811ZM32.4998 23.9675C30.8124 23.9675 29.163 24.4679 27.7601 25.4053C26.3571 26.3427 25.2636 27.6751 24.6179 29.234C23.9722 30.7929 23.8033 32.5082 24.1324 34.1631C24.4616 35.818 25.2741 37.3382 26.4673 38.5313C27.6604 39.7244 29.1805 40.5369 30.8354 40.8661C32.4903 41.1953 34.2056 41.0263 35.7645 40.3806C37.3234 39.7349 38.6558 38.6414 39.5932 37.2385C40.5307 35.8355 41.031 34.1861 41.031 32.4988C41.031 30.2361 40.1322 28.0662 38.5323 26.4663C36.9323 24.8664 34.7624 23.9675 32.4998 23.9675V23.9675Z" fill="white"/>
</svg>
