<svg width="64" height="64" viewBox="0 0 64 64" fill="none" xmlns="http://www.w3.org/2000/svg">
<rect width="64" height="64" rx="4" fill="#00BCD4"/>
<g clip-path="url(#clip0)">
<path d="M48.7769 24.8796C48.7769 21.8913 46.5789 19.4874 43.8628 19.4874C40.1839 19.3154 36.432 19.249 32.5977 19.249H31.4024C27.5774 19.249 23.8188 19.3154 20.1399 19.4881C17.4305 19.4881 15.2325 21.9053 15.2325 24.8936C15.0664 27.257 14.9961 29.621 15 31.9851C14.9934 34.3491 15.0687 36.7154 15.2258 39.0839C15.2258 42.0722 17.4239 44.496 20.1332 44.496C23.9981 44.6753 27.9625 44.755 31.9934 44.7484C36.0309 44.7616 39.9843 44.6775 43.8535 44.496C46.5696 44.496 48.7676 42.0722 48.7676 39.0839C48.927 36.7132 49 34.3491 48.9934 31.9784C49.0084 29.6144 48.9363 27.2481 48.7769 24.8796ZM28.7461 38.4995V25.4507L38.375 31.9718L28.7461 38.4995Z" fill="white"/>
</g>
<defs>
<clipPath id="clip0">
<rect width="34" height="34" fill="white" transform="translate(15 15)"/>
</clipPath>
</defs>
</svg>
